HIERARCHY
ROOT Hips
{
	OFFSET 0.000000 0.000000 0.000000 
	CHANNELS 6 Xposition Yposition Zposition Zrotation Yrotation Xrotation
	JOINT LeftUpLeg
	{
		OFFSET 1.363060 -1.794630 0.839290 
		CHANNELS 3 Zrotation Yrotation Xrotation
		JOINT LeftLeg
		{
			OFFSET 2.448110 -6.726130 0.000000 
			CHANNELS 3 Zrotation Yrotation Xrotation
			JOINT LeftFoot
			{
				OFFSET 2.562200 -7.039590 0.000000 
				CHANNELS 3 Zrotation Yrotation Xrotation
				JOINT LeftToeBase
				{
					OFFSET 0.157640 -0.433110 2.322550 
					CHANNELS 3 Zrotation Yrotation Xrotation
					End Site
					{
						OFFSET 0.000000 0.000000 0.000000 
					}
				}
			}
		}
	}
	JOINT RightUpLeg
	{
		OFFSET -1.305520 -1.794630 0.839290 
		CHANNELS 3 Zrotation Yrotation Xrotation
		JOINT RightLeg
		{
			OFFSET -2.542530 -6.985550 0.000000 
			CHANNELS 3 Zrotation Yrotation Xrotation
			JOINT RightFoot
			{
				OFFSET -2.568260 -7.056230 0.000000 
				CHANNELS 3 Zrotation Yrotation Xrotation
				JOINT RightToeBase
				{
					OFFSET -0.164730 -0.452590 2.363150 
					CHANNELS 3 Zrotation Yrotation Xrotation
					End Site
					{
						OFFSET 0.000000 0.000000 0.000000 
					}
				}
			}
		}
	}
	JOINT Spine
	{
		OFFSET 0.028270 2.035590 -0.193380 
		CHANNELS 3 Zrotation Yrotation Xrotation
		JOINT Spine1
		{
			OFFSET 0.056720 2.048850 -0.042750 
			CHANNELS 3 Zrotation Yrotation Xrotation
			JOINT Neck1
			{
				OFFSET -0.054170 1.746240 0.172020 
				CHANNELS 3 Zrotation Yrotation Xrotation
				JOINT Head
				{
					OFFSET 0.104070 1.761360 -0.123970 
					CHANNELS 3 Zrotation Yrotation Xrotation
					End Site
					{
						OFFSET 0.000000 0.000000 0.000000 
					}
				}
			}
			JOINT LeftArm
			{
				OFFSET 3.362410 1.200890 -0.311210 
				CHANNELS 3 Zrotation Yrotation Xrotation
				JOINT LeftForeArm
				{
					OFFSET 4.983000 -0.000000 -0.000000 
					CHANNELS 3 Zrotation Yrotation Xrotation
					JOINT LeftHand
					{
						OFFSET 3.483560 -0.000000 -0.000000 
						CHANNELS 3 Zrotation Yrotation Xrotation
						JOINT LeftHandIndex1
						{
							OFFSET 0.715260 -0.000000 -0.000000 
							CHANNELS 3 Zrotation Yrotation Xrotation
							End Site
							{
								OFFSET 0.000000 0.000000 0.000000 
							}
						}
					}
				}
			}
			JOINT RightArm
			{
				OFFSET -3.136600 1.374050 -0.404650 
				CHANNELS 3 Zrotation Yrotation Xrotation
				JOINT RightForeArm
				{
					OFFSET -5.241900 -0.000000 -0.000000 
					CHANNELS 3 Zrotation Yrotation Xrotation
					JOINT RightHand
					{
						OFFSET -3.444170 -0.000000 -0.000000 
						CHANNELS 3 Zrotation Yrotation Xrotation
						JOINT RightHandIndex1
						{
							OFFSET -0.622530 -0.000000 -0.000000 
							CHANNELS 3 Zrotation Yrotation Xrotation
							End Site
							{
								OFFSET 0.000000 0.000000 0.000000 
							}
						}
					}
				}
			}
		}
	}
}
MOTION
Frames: 10
Frame Time: 0.041667
12.417017 17.617353 -22.146555 -0.351784 -22.128910 11.433535 -23.061117 -9.267473 -12.006462 0.603350 6.663860 21.047163 0.827885 3.306183 -17.605098 2.336000 -9.533400 -27.478700 30.833674 4.273307 -15.337453 -2.866646 -8.280768 26.755861 -0.545104 13.904022 -13.044140 -2.283200 -9.432700 27.158500 1.209252 -2.569096 -4.517144 -2.155796 -0.658226 -11.695575 -8.795467 15.102105 -17.152760 -12.121300 4.236600 -9.090400 -70.260007 14.407197 28.747784 31.005376 -36.646944 -11.809833 0.384637 -1.219943 -21.653454 -7.125000 0.000000 0.000000 71.819167 -9.759510 5.658823 -35.659238 38.953032 -14.680259 -1.260425 0.944808 9.708563 7.125000 0.000000 0.000000 
12.412409 17.614118 -22.138515 -0.205599 -22.135337 11.205465 -23.238318 -8.960888 -11.809891 0.601122 6.624468 20.968516 0.830958 3.106569 -17.535048 2.356500 -9.572200 -27.602100 30.717916 4.369253 -15.118263 -2.861027 -8.314960 26.863577 -0.673097 13.224288 -13.900354 -2.083900 -9.038700 25.916600 1.190371 -2.639246 -4.488560 -2.359860 -0.724637 -11.510202 -8.901500 14.762501 -16.418375 -12.287700 4.105800 -8.522300 -71.029113 14.642828 27.858567 31.370795 -36.947348 -12.072541 0.378960 -1.246900 -20.860116 -7.125000 0.000000 0.000000 72.128440 -9.894446 5.149287 -36.521929 39.565440 -15.302126 -1.246277 0.973522 8.983278 7.125000 0.000000 0.000000 
12.409860 17.603921 -22.136162 -0.033297 -22.232968 10.968301 -23.432099 -8.530350 -11.670836 0.608535 6.591397 20.917435 0.849997 2.696089 -17.527543 2.271700 -9.410400 -27.087700 30.554315 4.675313 -14.854629 -2.859836 -8.342050 26.946755 -0.755542 12.788716 -14.464340 -2.017400 -8.902300 25.490100 1.175309 -2.674046 -4.470860 -2.291604 -0.721748 -11.614537 -8.816543 14.835746 -16.980323 -12.194800 4.115000 -9.036200 -71.534748 14.952422 27.009321 31.615309 -37.125180 -12.198562 0.334085 -1.210136 -19.894782 -7.125000 0.000000 0.000000 71.991171 -10.070329 4.481475 -37.145568 40.034625 -15.794593 -1.239516 1.009332 8.735739 7.125000 0.000000 0.000000 
12.409467 17.590978 -22.133711 0.088168 -22.344100 10.699122 -23.570732 -8.253618 -11.448776 0.614743 6.562433 20.879636 0.865005 2.396693 -17.535464 2.185700 -9.242600 -26.557200 30.416680 5.031368 -14.441862 -2.864821 -8.344173 26.985486 -0.783064 12.684051 -14.644597 -2.093300 -9.057700 25.976000 1.160178 -2.683925 -4.461894 -2.311604 -0.722106 -11.748679 -8.910338 14.874551 -17.303900 -12.275300 4.103000 -9.315500 -71.682091 15.319024 26.786833 31.602690 -37.080517 -12.128474 0.297371 -1.134297 -20.636693 -7.125000 0.000000 0.000000 71.523842 -10.203125 3.620493 -37.635339 40.392847 -16.181232 -1.230786 1.032480 8.739985 7.125000 0.000000 0.000000 
12.411036 17.587547 -22.129004 0.206243 -22.452362 10.411390 -23.711113 -8.074778 -11.196672 0.622287 6.541724 20.864118 0.878535 2.150062 -17.553166 2.098100 -9.067500 -26.006700 30.289431 5.034709 -14.121342 -2.867358 -8.329219 26.980647 -0.801553 12.665296 -14.769076 -2.038500 -8.945900 25.626300 1.134268 -2.637643 -4.461713 -2.421247 -0.709635 -11.855470 -8.884113 14.801440 -17.168041 -12.268400 4.094600 -9.279000 -71.517767 15.733008 26.548374 31.518719 -37.021183 -12.068459 0.331178 -1.142022 -21.291180 -7.125000 0.000000 0.000000 70.737418 -10.327812 2.585198 -38.055270 40.684833 -16.497909 -1.222369 1.032835 8.774153 7.125000 0.000000 0.000000 
12.416429 17.594116 -22.121651 0.217330 -22.498597 10.257654 -23.733858 -7.964645 -11.058956 0.632608 6.529642 20.856681 0.896548 1.798413 -17.579631 1.914800 -8.686300 -24.818900 30.266438 4.764095 -14.017162 -2.864791 -8.305788 26.937715 -0.815432 12.748908 -14.875520 -2.041000 -8.951100 25.642400 1.125838 -2.645061 -4.485325 -2.592010 -0.738888 -11.961805 -8.965864 14.715939 -16.741919 -12.368900 4.101100 -9.036400 -71.060084 16.101820 25.902946 31.376921 -36.947674 -12.013849 0.353300 -1.202586 -21.263554 -7.125000 0.000000 0.000000 69.642474 -10.410028 1.622814 -38.313851 40.864171 -16.692883 -1.217438 1.018850 8.786095 7.125000 0.000000 0.000000 
12.421527 17.598822 -22.114689 0.167864 -22.533363 10.257016 -23.698264 -7.835323 -11.062166 0.641009 6.527166 20.860359 0.901950 1.581802 -17.548044 1.803400 -8.444000 -24.070900 30.307862 4.636992 -13.981327 -2.851346 -8.282975 26.869057 -0.836723 12.700246 -15.021652 -2.110300 -9.092000 26.083700 1.099035 -2.606246 -4.474873 -2.846295 -0.754364 -11.863818 -8.984408 14.695696 -16.602221 -12.412500 4.109500 -9.030500 -70.109337 16.156715 25.268624 31.113489 -36.748003 -11.801093 0.291263 -1.156403 -21.545026 -7.125000 0.000000 0.000000 68.387344 -10.221184 0.514831 -38.250750 40.857953 -16.670811 -1.213584 1.001445 8.912265 7.125000 0.000000 0.000000 
12.426528 17.600979 -22.110964 0.112488 -22.621201 10.416336 -23.660396 -7.683139 -11.290520 0.656507 6.559572 20.942187 0.893425 1.502264 -17.444719 1.902800 -8.660700 -24.739600 30.358526 4.795837 -14.026135 -2.825331 -8.257441 26.755653 -0.842311 12.505366 -15.041344 -2.112600 -9.096800 26.098500 1.045045 -2.488667 -4.415724 -3.199740 -0.736222 -11.491968 -8.914543 14.794219 -16.939803 -12.345500 4.122300 -9.342100 -68.786910 15.921699 24.403911 30.719452 -36.504054 -11.581858 0.200094 -1.184908 -21.277805 -7.125000 0.000000 0.000000 66.989464 -9.642342 -0.905810 -37.812354 40.633982 -16.397363 -1.211088 0.981878 9.447467 7.125000 0.000000 0.000000 
12.432999 17.602842 -22.109101 0.080802 -22.815498 10.605439 -23.651708 -7.669709 -11.554145 0.678992 6.624343 21.107883 0.891455 1.509377 -17.434970 1.956600 -8.775000 -25.094000 30.363579 5.096945 -14.080372 -2.795882 -8.218391 26.600286 -0.826698 12.341362 -14.905869 -2.034000 -8.936400 25.596700 1.013715 -2.388125 -4.397869 -3.437073 -0.713657 -11.274189 -8.993250 15.022089 -17.227411 -12.401700 4.183100 -9.528900 -67.433728 15.810050 23.454722 30.259696 -36.154183 -11.228297 0.195863 -1.126422 -20.095688 -7.125000 0.000000 0.000000 65.307288 -9.141086 -2.231379 -37.225329 40.290604 -16.010147 -1.210147 0.952975 9.986133 7.125000 0.000000 0.000000 
12.435744 17.601371 -22.108120 0.164760 -23.058464 10.681133 -23.747169 -7.706233 -11.748889 0.706484 6.703180 21.323590 0.892146 1.577783 -17.469007 1.980200 -8.824600 -25.248200 30.248422 5.296165 -14.045711 -2.773239 -8.162217 26.420722 -0.802466 12.426779 -14.734578 -1.974700 -8.813100 25.212400 0.999485 -2.311084 -4.429528 -3.451514 -0.676592 -11.325884 -9.049880 15.154134 -17.356662 -12.467200 4.232800 -9.672500 -66.074697 15.970007 22.644022 29.885283 -35.870244 -10.944642 0.194123 -1.064361 -19.348170 -7.125000 0.000000 0.000000 63.371205 -8.931835 -3.155434 -36.620980 39.894944 -15.583695 -1.199850 0.905472 10.294460 7.125000 0.000000 0.000000 
